<svg xmlns="http://www.w3.org/2000/svg" width="15" height="12" viewBox="0 0 15 12">
    <g fill="#39453A" fill-rule="evenodd">
        <path d="M13.169 0H1.834C.822 0 0 .865 0 1.928v8.144C0 11.135.822 12 1.834 12h11.332C14.178 12 15 11.135 15 10.072v-8.14C15.003.867 14.18 0 13.169 0zm.996 10.072c0 .577-.447 1.047-.996 1.047H1.834c-.549 0-.996-.47-.996-1.047v-8.14c0-.578.447-1.048.996-1.048h11.332c.549 0 .996.47.996 1.047v8.14h.003z"/>
        <path d="M9.365 5.904l3.496-3.192a.414.414 0 0 0 .03-.575.396.396 0 0 0-.565-.03l-4.82 4.406-.941-.856a.606.606 0 0 0-.07-.066L2.666 2.104a.394.394 0 0 0-.565.033.411.411 0 0 0 .032.575l3.538 3.22-3.523 3.357a.413.413 0 0 0-.017.575.397.397 0 0 0 .565.021L6.271 6.48l.97.882a.395.395 0 0 0 .532-.003l.997-.91 3.555 3.44a.393.393 0 0 0 .565-.015.413.413 0 0 0-.015-.576l-3.51-3.394z"/>
    </g>
</svg>
