<svg xmlns="http://www.w3.org/2000/svg" xmlns:xlink="http://www.w3.org/1999/xlink" width="118" height="100" viewBox="0 0 118 100">
    <defs>
        <path id="a" d="M.017.24h77.731v43.572H.018z"/>
        <path id="c" d="M.017.028H77.83v48.85H.017z"/>
    </defs>
    <g fill="none" fill-rule="evenodd">
        <g transform="translate(0 56)">
            <mask id="b" fill="#fff">
                <use xlink:href="#a"/>
            </mask>
            <path fill="#515E52" d="M70.616 29.613H61.65a2.306 2.306 0 0 0-2.31 2.3c0 1.271 1.034 2.301 2.31 2.301h8.967c1.385 0 2.51 1.12 2.51 2.499a2.507 2.507 0 0 1-2.51 2.498H46.478c-3.628 0-7.04-1.593-9.36-4.37l-5.772-6.906a16.772 16.772 0 0 0-12.43-6.015V8.331h8.51a16.07 16.07 0 0 1 11.187 4.498L51.07 24.801c.882.846.922 2.263.092 3.159a2.281 2.281 0 0 1-3.202.132l-9.781-8.925a2.318 2.318 0 0 0-3.265.142 2.293 2.293 0 0 0 .141 3.25l9.782 8.925a6.881 6.881 0 0 0 4.653 1.798c1.86 0 3.713-.741 5.068-2.202 2.521-2.718 2.396-7.02-.277-9.59L41.822 9.52a20.68 20.68 0 0 0-14.397-5.79h-8.957a5.736 5.736 0 0 0-5.28-3.49H2.311A2.306 2.306 0 0 0 0 2.542v16.822c0 1.27 1.035 2.3 2.311 2.3a2.306 2.306 0 0 0 2.311-2.3V4.84h8.566c.611 0 1.107.494 1.107 1.102V24.38c0 .606-.496 1.1-1.107 1.1h-2.4a2.306 2.306 0 0 0-2.31 2.301c0 1.27 1.035 2.3 2.31 2.3h2.4a5.736 5.736 0 0 0 5.313-3.573 12.162 12.162 0 0 1 9.291 4.368l5.773 6.907a16.778 16.778 0 0 0 12.913 6.028h24.138c3.933 0 7.132-3.185 7.132-7.099 0-3.915-3.199-7.1-7.132-7.1z" mask="url(#b)"/>
        </g>
        <path fill="#515E52" d="M114.711 21.459c-1.264 0-2.289 1.04-2.289 2.323v15.573h-8.485c-.603 0-1.095-.5-1.095-1.113v-18.62c0-.613.492-1.111 1.095-1.111h2.21c1.264 0 2.289-1.04 2.289-2.324 0-1.283-1.025-2.323-2.29-2.323h-2.209c-2.38 0-4.42 1.495-5.26 3.609-3.569-.022-6.92-1.625-9.203-4.411l-5.716-6.976C80.587 2.218 75.925 0 70.968 0H47.062C43.168 0 40 3.215 40 7.169c0 3.952 3.168 7.168 7.062 7.168h9.776c1.264 0 2.289-1.04 2.289-2.323s-1.025-2.322-2.29-2.322h-9.775c-1.37 0-2.485-1.133-2.485-2.523 0-1.392 1.115-2.523 2.485-2.523h23.906c3.594 0 6.974 1.607 9.271 4.411l5.717 6.976c3.068 3.742 7.532 5.934 12.31 6.074V35.83h-8.427c-4.157 0-8.09-1.614-11.08-4.543l-12.34-12.089a2.322 2.322 0 0 1-.09-3.191 2.23 2.23 0 0 1 3.171-.134l9.688 9.013c.932.868 2.38.803 3.233-.142a2.347 2.347 0 0 0-.14-3.282l-9.688-9.014a6.767 6.767 0 0 0-9.627.409c-2.497 2.745-2.374 7.089.275 9.683l12.338 12.09c3.848 3.77 8.912 5.846 14.26 5.846h8.87c.862 2.069 2.881 3.524 5.228 3.524h10.774c1.264 0 2.289-1.04 2.289-2.323V23.78c0-1.282-1.025-2.322-2.289-2.322zM74.78 78.469a2.481 2.481 0 0 0-3.286-1.248A2.494 2.494 0 0 0 72.488 82c.332 0 .668-.067.992-.208l.054-.024a2.498 2.498 0 0 0 1.245-3.3zM80.51 75.012A2.501 2.501 0 1 0 78.496 79c.511 0 1.027-.156 1.47-.482l.032-.023a2.493 2.493 0 0 0 .514-3.483zM67.945 80.981a2.49 2.49 0 0 0-2.941-1.929 2.498 2.498 0 0 0-1.96 2.92 2.492 2.492 0 0 0 2.913 1.984l.073-.016a2.494 2.494 0 0 0 1.915-2.959zM85.176 69.641a2.493 2.493 0 0 0-3.519.181l-.052.061A2.49 2.49 0 0 0 83.49 74c.692 0 1.38-.287 1.873-.845a2.49 2.49 0 0 0-.187-3.514zm-1.39 2.1l-.278-.25.3.27-.023-.02zM91.226 57.108a2.503 2.503 0 0 0-3.115 1.667A2.492 2.492 0 0 0 90.497 62a2.495 2.495 0 0 0 2.384-1.759l.011-.034c.4-1.317-.347-2.7-1.666-3.1zM93.96 45.073a2.495 2.495 0 0 0-2.973-2.02 2.49 2.49 0 0 0-1.937 2.929 2.496 2.496 0 0 0 2.893 1.978 2.487 2.487 0 0 0 2.017-2.887zM91.72 50.01a2.497 2.497 0 0 0-2.716 2.356A2.49 2.49 0 0 0 91.502 55a2.494 2.494 0 0 0 2.49-2.306 2.49 2.49 0 0 0-2.272-2.684zM88.736 63.323a2.497 2.497 0 0 0-3.397.936l-.036.062A2.487 2.487 0 0 0 87.494 68c.88 0 1.73-.464 2.179-1.291l-2.167-1.227 2.17 1.225a2.476 2.476 0 0 0-.94-3.384zM46.736 19.383a2.489 2.489 0 0 0-3.344-1.118l-.023.01a2.49 2.49 0 0 0-1.103 3.347 2.502 2.502 0 0 0 3.355 1.113 2.502 2.502 0 0 0 1.115-3.352z"/>
        <path fill="#515E52" d="M53.93 17.907a2.483 2.483 0 0 0-3.06-1.821 2.5 2.5 0 0 0-1.791 3.04A2.484 2.484 0 0 0 52.1 20.92a2.496 2.496 0 0 0 1.83-3.014zM41.449 22.93a2.491 2.491 0 0 0-3.502-.38l1.544 1.956-1.552-1.95a2.496 2.496 0 0 0-.397 3.504 2.486 2.486 0 0 0 3.501.397l.033-.026a2.494 2.494 0 0 0 .373-3.502zM28.16 39.088a2.5 2.5 0 0 0-3.066 1.747l-.023.092A2.486 2.486 0 0 0 27.5 44c1.12 0 2.138-.757 2.42-1.887a2.488 2.488 0 0 0-1.758-3.025zM26.645 46.004a2.497 2.497 0 0 0-2.644 2.437 2.492 2.492 0 0 0 2.5 2.559 2.496 2.496 0 0 0 2.496-2.398 2.493 2.493 0 0 0-2.352-2.598zM31.664 33.285a2.498 2.498 0 0 0-3.367 1.048l-.04.08a2.484 2.484 0 0 0 1.137 3.33 2.496 2.496 0 0 0 3.332-1.12 2.488 2.488 0 0 0-1.062-3.338zM36.1 27.574a2.492 2.492 0 0 0-3.51.326l-.052.064a2.488 2.488 0 0 0 .407 3.497 2.491 2.491 0 0 0 3.494-.394 2.491 2.491 0 0 0-.34-3.493zM29.96 55.054a2.498 2.498 0 0 0-2.9-2.014 2.493 2.493 0 0 0-2.02 2.893l.004.024a2.483 2.483 0 0 0 2.898 2.003 2.503 2.503 0 0 0 2.018-2.906z"/>
        <g transform="translate(0 37)">
            <mask id="d" fill="#fff">
                <use xlink:href="#c"/>
            </mask>
            <path fill="#515E52" d="M67.1.028a10.684 10.684 0 0 0-7.782 3.346 10.684 10.684 0 0 0-7.78-3.346c-5.918 0-10.731 4.832-10.731 10.77a10.76 10.76 0 0 0 3.862 8.275l.046.037 13.169 10.464a2.304 2.304 0 0 0 2.874-.005l13.727-10.973c.066-.053.13-.11.192-.172a10.717 10.717 0 0 0 3.153-7.626C77.83 4.86 73.016.028 67.1.028zm4.397 15.028l-12.183 9.739-11.706-9.301a6.13 6.13 0 0 1-2.18-4.695c0-3.38 2.74-6.132 6.11-6.132a6.091 6.091 0 0 1 5.645 3.788c.358.865 1.2 1.43 2.135 1.43.934 0 1.776-.564 2.135-1.43A6.091 6.091 0 0 1 67.1 4.667c3.369 0 6.11 2.752 6.11 6.132 0 1.6-.608 3.108-1.712 4.257zM4.613 46.566a2.307 2.307 0 0 1-2.302 2.312 2.308 2.308 0 0 1-2.303-2.312 2.307 2.307 0 0 1 2.303-2.31 2.306 2.306 0 0 1 2.302 2.31z" mask="url(#d)"/>
        </g>
        <path fill="#000" d="M118 16.5a2.5 2.5 0 1 1-5 .001 2.5 2.5 0 0 1 5-.001z"/>
    </g>
</svg>
