<svg xmlns="http://www.w3.org/2000/svg" xmlns:xlink="http://www.w3.org/1999/xlink" width="13" height="13" viewBox="0 0 13 13">
    <defs>
        <path id="a" d="M0 0h13v13H0z"/>
    </defs>
    <g fill="none" fill-rule="evenodd">
        <mask id="b" fill="#fff">
            <use xlink:href="#a"/>
        </mask>
        <path fill="#39453A" d="M12.994 10.26a.63.63 0 0 1-.193.55l-1.83 1.818a1.03 1.03 0 0 1-.324.234 1.336 1.336 0 0 1-.392.124l-.082.007a1.9 1.9 0 0 1-.18.007c-.174 0-.456-.03-.846-.09-.39-.06-.867-.206-1.431-.44-.564-.234-1.204-.586-1.92-1.054-.715-.468-1.477-1.11-2.284-1.928a15.086 15.086 0 0 1-1.597-1.817A12.965 12.965 0 0 1 .897 6.066 8.635 8.635 0 0 1 .319 4.73a7.091 7.091 0 0 1-.262-1.032 3.408 3.408 0 0 1-.055-.682c.01-.165.014-.257.014-.276.018-.128.06-.259.124-.392s.142-.241.234-.324L2.204.193A.606.606 0 0 1 2.644 0c.12 0 .225.034.317.103.092.07.17.154.234.255l1.473 2.796a.67.67 0 0 1 .068.482.858.858 0 0 1-.233.44l-.675.675a.23.23 0 0 0-.048.09.34.34 0 0 0-.02.103c.036.193.119.413.247.66.11.221.28.49.51.806.229.317.554.682.976 1.095.413.423.78.75 1.101.985.321.234.59.406.805.516.216.11.381.177.496.2l.172.034a.328.328 0 0 0 .09-.02.23.23 0 0 0 .089-.048l.784-.8a.843.843 0 0 1 .578-.22c.156 0 .28.028.372.083h.014l2.656 1.57c.192.12.307.27.344.455z" mask="url(#b)"/>
    </g>
</svg>
