<svg xmlns="http://www.w3.org/2000/svg" width="126" height="109" viewBox="0 0 126 109">
    <g fill="#F1F1F1" fill-rule="evenodd">
        <path d="M120.254 22.117c-3.258-3.258-7.192-4.887-11.797-4.887H93.859l-3.324-8.863c-.828-2.129-2.336-3.965-4.531-5.512C83.809 1.316 81.562.542 79.258.542H45.887c-2.305 0-4.555.774-6.746 2.313-2.196 1.547-3.707 3.383-4.532 5.512l-3.324 8.863H16.688c-4.61 0-8.54 1.629-11.801 4.887C1.629 25.374 0 29.308 0 33.913v58.403c0 4.605 1.629 8.539 4.887 11.797 3.261 3.258 7.191 4.886 11.801 4.886h91.769c4.605 0 8.539-1.628 11.797-4.886 3.258-3.258 4.887-7.192 4.887-11.797V33.913c0-4.605-1.629-8.539-4.887-11.796zM83.199 83.746c-5.711 5.71-12.59 8.57-20.629 8.57-8.039 0-14.914-2.86-20.629-8.57-5.714-5.715-8.57-12.594-8.57-20.629 0-8.039 2.859-14.914 8.57-20.629 5.715-5.715 12.59-8.575 20.629-8.575 8.039 0 14.914 2.86 20.629 8.575 5.715 5.711 8.571 12.59 8.571 20.629 0 8.035-2.856 14.914-8.571 20.629z"/>
        <path d="M62.57 44.343c-5.172 0-9.59 1.836-13.261 5.508-3.672 3.672-5.508 8.094-5.508 13.266 0 5.168 1.836 9.589 5.508 13.261 3.671 3.672 8.089 5.508 13.261 5.508 5.172 0 9.594-1.836 13.266-5.508 3.672-3.672 5.508-8.093 5.508-13.261 0-5.172-1.836-9.594-5.508-13.266-3.672-3.672-8.094-5.508-13.266-5.508z"/>
    </g>
</svg>
