<svg xmlns="http://www.w3.org/2000/svg" width="32" height="19" viewBox="0 0 32 19">
    <g fill="#39453A" fill-rule="nonzero">
        <circle cx="7.5" cy="11.5" r="1.5"/>
        <circle cx="24.5" cy="11.5" r="1.5"/>
        <path d="M24 7c-2.154 0-4 1.744-4 4 0 2.154 1.744 4 4 4 2.154 0 4-1.744 4-4-.103-2.256-1.846-4-4-4zm0 6.667a2.758 2.758 0 0 1-2.77-2.77c0-1.538 1.232-2.769 2.77-2.769s2.77 1.231 2.77 2.77c-.103 1.538-1.334 2.769-2.77 2.769zM8 7c-2.154 0-4 1.744-4 4 0 2.154 1.744 4 4 4 2.154 0 4-1.744 4-4 0-2.256-1.744-4-4-4zm0 6.77A2.758 2.758 0 0 1 5.23 11c0-1.538 1.232-2.77 2.77-2.77s2.77 1.232 2.77 2.77S9.537 13.77 8 13.77z"/>
        <path d="M31.9 3.016h-5.283C23.925 1.206 20.237 0 15.95 0 11.664 0 7.776 1.106 5.084 3.016H0C.798 4.02 1.396 5.328 1.595 6.233.598 7.54.1 9.148.1 10.958.1 15.38 3.688 19 8.075 19c2.492 0 4.685-1.206 6.18-2.915.599.703 1.595 2.11 1.795 2.513 0 0 1.096-1.71 1.794-2.513C19.34 17.895 21.533 19 24.024 19 28.412 19 32 15.381 32 10.958c0-1.71-.598-3.418-1.495-4.725 0-.905.598-2.212 1.395-3.217zM7.975 17.392c-3.489 0-6.38-2.916-6.38-6.434 0-3.519 2.891-6.434 6.38-6.434 3.49 0 6.38 2.915 6.38 6.434 0 3.518-2.791 6.434-6.38 6.434zm0-14.477c2.293-1.005 5.084-1.508 7.975-1.508s5.383.503 7.676 1.508c-4.286.1-7.676 3.62-7.676 8.043 0-4.424-3.589-8.043-7.975-8.043zm15.95 14.477c-3.489 0-6.38-2.916-6.38-6.434 0-3.519 2.891-6.434 6.38-6.434 3.49 0 6.38 2.915 6.38 6.434 0 3.518-2.89 6.434-6.38 6.434z"/>
    </g>
</svg>
