<?xml version="1.0" encoding="utf-8"?>
<!-- Generator: Adobe Illustrator 22.0.0, SVG Export Plug-In . SVG Version: 6.00 Build 0)  -->
<svg version="1.1" id="Layer_1" xmlns="http://www.w3.org/2000/svg" xmlns:xlink="http://www.w3.org/1999/xlink" x="0px" y="0px"
	 viewBox="0 0 32 20" style="enable-background:new 0 0 32 20;" xml:space="preserve">
<style type="text/css">
	.st0{fill:#010101;}
</style>
<path class="st0" d="M15.9,1.8c2.6,0,3,0,4,0.1C22.6,2,23.9,3.3,24,6c0,1.1,0.1,1.4,0.1,4c0,2.7,0,3-0.1,4c-0.1,2.7-1.4,4-4.1,4.1
	c-1,0-1.4,0.1-4,0.1c-2.6,0-3,0-4-0.1C9.2,18,8,16.7,7.9,14c0-1.1-0.1-1.4-0.1-4c0-2.7,0-3,0.1-4C8,3.3,9.3,2,11.9,1.9
	C13,1.8,13.3,1.8,15.9,1.8z M15.9,0c-2.7,0-3,0-4.1,0.1C8.3,0.2,6.3,2.2,6.1,5.9C6,6.9,6,7.3,6,10c0,2.7,0,3.1,0.1,4.1
	c0.2,3.6,2.2,5.6,5.8,5.8c1.1,0,1.4,0.1,4.1,0.1c2.7,0,3,0,4.1-0.1c3.6-0.2,5.6-2.2,5.8-5.8c0-1.1,0.1-1.4,0.1-4.1
	c0-2.7,0-3.1-0.1-4.1c-0.2-3.6-2.2-5.6-5.8-5.8C19,0,18.6,0,15.9,0z M15.9,4.9c-2.8,0-5.1,2.3-5.1,5.1c0,2.8,2.3,5.1,5.1,5.1
	c2.8,0,5.1-2.3,5.1-5.1S18.8,4.9,15.9,4.9z M15.9,13.3c-1.8,0-3.3-1.5-3.3-3.3c0,0,0,0,0,0c0-1.8,1.5-3.3,3.3-3.3
	c1.8,0,3.3,1.5,3.3,3.3v0C19.2,11.8,17.8,13.3,15.9,13.3z M21.2,3.5C20.6,3.5,20,4,20,4.7c0,0.7,0.5,1.2,1.2,1.2
	c0.7,0,1.2-0.5,1.2-1.2c0,0,0,0,0,0v0C22.4,4,21.9,3.5,21.2,3.5C21.2,3.5,21.2,3.5,21.2,3.5C21.2,3.5,21.2,3.5,21.2,3.5z"/>
</svg>
